<svg width="32" height="32" viewBox="0 0 32 32" fill="currentColor" xmlns="http://www.w3.org/2000/svg">
<path d="M18.7632 30.5098L18.7471 28.0213C18.6824 27.7621 17.7167 28.2684 17.714 26.7463L17.7119 24.8192C17.7111 24.4058 17.7049 24.3815 17.6165 24.005L16.9729 21.3196C16.8466 20.6449 16.7891 19.9597 16.7465 19.2756C16.3049 19.4098 15.8937 19.4222 15.4631 19.2492C15.3806 19.5462 15.3498 19.8456 15.2998 20.1484L15.1172 21.1743C14.9972 21.8207 14.8136 22.4571 14.651 23.0938L14.4782 23.7439C14.3187 24.3177 14.3013 24.3527 14.3001 24.9976L14.2971 26.5739C14.2951 27.4295 14.3549 27.7978 13.2768 27.8608L13.2675 29.8089C13.2666 30.0606 13.3171 30.4898 13.2187 30.7222C12.7775 31.7647 12.1949 31.7554 11.1662 31.8601L9.31485 31.9963L5.73553 31.9961C4.08773 31.9863 2.65978 31.1156 2.27217 29.4171C2.19346 29.0723 2.31515 28.0235 2.1157 27.968C0.13298 27.4158 0.474511 26.6465 0.599058 24.7801L0.839433 20.5337C0.849418 20.3683 0.88462 20.2091 0.893714 20.043L0.938339 18.8962C1.0192 17.8344 1.04203 16.778 1.12884 15.7255L1.45467 12.0462C1.66776 9.50951 1.82845 7.53383 2.97684 5.19997C3.45131 4.23565 3.34125 4.73197 3.34064 3.58344L3.3405 1.58754C3.34115 0.880998 3.26104 0.204358 4.1721 0.0199045C4.47834 0.00204517 4.6274 0.164701 4.86942 0.312451L5.67829 0.753685C7.34118 1.56106 9.17985 1.98312 11.013 2.15014L13.2487 2.30862L19.0904 2.25978C22.0635 2.14836 24.7706 1.78779 27.3249 0.198779C27.5444 0.0622324 27.7378 -0.0209708 28.0019 0.0492479C28.8023 0.262107 28.659 1.14584 28.6582 1.73881L28.6566 3.90908C28.6574 4.59392 28.5428 4.34694 28.8791 4.87259C29.1712 5.32915 29.5259 6.12186 29.668 6.64836L29.7637 6.95197C29.7876 7.06151 29.8356 7.15892 29.8586 7.26945L30.1161 8.28926C30.2511 8.94355 30.3557 9.61597 30.4229 10.2808L30.8583 15.4374L30.9981 18.8249C31.0031 18.9379 31.029 19.0411 31.0376 19.1515L31.1066 20.5908C31.1173 20.7718 31.1544 20.9506 31.1644 21.1315L31.3683 25.1479C31.4051 25.6525 31.5718 26.2998 31.4346 26.7986L31.4228 26.8398C31.1219 27.9428 29.8222 27.833 29.8099 28.0548L29.8004 28.8599C29.7798 30.4482 28.5607 31.6536 27.0308 31.9339C26.6326 32.0068 26.2397 31.9988 25.837 31.9973L21.2586 31.9427C20.2139 31.8793 18.9838 31.8262 18.7632 30.5098ZM4.66551 1.77987L4.65675 3.53586C4.65782 4.49183 4.47604 4.29087 5.36864 4.67117C7.61709 5.62911 10.2211 5.90492 12.6334 6.06181L13.7674 6.08089L13.1338 4.09751C13.0872 3.96308 13.0532 3.79578 12.9726 3.67887C12.4104 3.59614 11.8322 3.63898 11.2663 3.58737C9.18271 3.39744 6.49317 2.90061 4.66551 1.77987ZM27.286 1.83195C25.5323 2.91631 22.6013 3.42036 20.5885 3.599C20.3444 3.62065 19.069 3.56056 19.024 3.69762C18.9144 4.03156 18.7985 4.37183 18.7204 4.71476L18.437 6.07414C18.4752 6.11014 18.4713 6.10198 18.5197 6.10531L19.7965 6.06626C22.0921 5.93375 25.139 5.47953 27.1384 4.44912C27.4881 4.26889 27.3434 4.24376 27.3457 3.83642C27.3492 3.24289 27.3837 2.61945 27.3421 2.02878L27.286 1.83195ZM14.4143 3.70442C14.4495 3.87176 14.5194 4.0167 14.5741 4.17467L15.1023 5.77948C15.4785 6.78706 15.6743 9.03026 15.4684 10.157L15.3698 10.7448C15.1688 11.6646 14.7237 13.0684 15.0387 13.9951C15.253 14.6255 16.2142 15.219 16.7251 14.3863C17.2168 13.4345 17.0899 10.5867 16.9836 9.4257L16.9424 8.68817C16.867 7.53847 16.9327 6.40873 17.1883 5.28008L17.5838 3.71309L14.4143 3.70442ZM4.27579 5.65644C3.14901 7.4765 2.99109 9.69542 2.83954 11.7739L2.73103 13.052C3.28279 12.8543 3.75529 12.5574 4.17014 12.1413C5.42212 10.8948 6.05029 9.30078 6.41817 7.60142L6.61279 6.52995C6.15262 6.42851 5.68579 6.27584 5.25154 6.09354L4.27579 5.65644ZM27.6953 5.72258L25.4047 6.5839C25.4687 7.30475 25.6514 8.12056 25.8925 8.80461L26.0814 9.39054C26.4997 10.4583 27.0651 11.407 27.9144 12.193C28.3454 12.5647 28.7578 12.8652 29.2917 13.0761C29.2435 12.6985 29.244 12.3207 29.2115 11.9424C29.0782 10.394 28.7403 7.01412 27.7698 5.72258H27.6953ZM7.95937 6.84514C7.83093 7.45906 7.73821 8.0779 7.57213 8.68437C6.93515 11.0105 5.46914 13.69 2.99789 14.4365C2.85159 14.4807 2.70009 14.4974 2.55346 14.5396L2.13121 21.5764L2.11214 22.9843C2.10642 23.1474 2.05706 23.3109 2.05359 23.4685C3.34378 23.7637 4.72509 23.9923 6.051 24.0637L8.74645 24.0648L13.0936 23.6492L14.1153 18.8541L13.2132 18.6012C12.9125 18.518 12.408 18.459 12.2443 18.1568C11.8661 17.4586 12.4889 16.9228 13.2272 17.1875C13.4188 17.2563 13.6303 17.2995 13.8276 17.3511L14.8746 17.6356C15.1368 17.7094 15.4176 17.8422 15.6841 17.884C16.5051 18.0129 16.4295 17.8835 17.0397 17.6513C17.4577 17.4922 17.9108 17.3915 18.344 17.2823C18.8559 17.1532 19.4938 16.8691 19.7983 17.4999L19.8119 17.5276C19.9587 17.8448 19.8068 18.2806 19.4872 18.4257C19.2955 18.5127 19.0717 18.509 18.8677 18.553L18.0298 18.7575C18.0505 19.1569 18.108 19.55 18.1374 19.9491L18.2332 20.8187C18.265 21.0368 18.3352 21.2705 18.3934 21.4843L18.8313 23.2924C18.8561 23.3945 18.8603 23.5024 18.9157 23.5937C19.3492 23.5932 19.7857 23.5833 20.2174 23.6292L22.6532 23.9992L23.1149 24.0612C23.6813 24.1038 24.2571 24.0955 24.8241 24.0759L25.6519 24.0599C26.1929 24.0264 26.7479 23.9465 27.2854 23.8725L29.928 23.471C29.8833 23.0395 29.8972 22.609 29.8797 22.1765L29.4794 14.9237C29.4718 14.8028 29.4849 14.6676 29.4539 14.5512C26.0724 13.6544 24.5452 10.0677 24.0697 6.88747C22.6806 7.17336 21.231 7.34675 19.8155 7.43333C19.3038 7.46464 18.7763 7.40806 18.2695 7.463C18.1958 7.63147 18.2458 8.24459 18.2595 8.42961L18.3453 10.2695C18.3576 10.4813 18.4005 10.6914 18.4103 10.9023L18.416 11.9793C18.4141 13.0212 18.3827 14.0662 17.9016 15.0155C16.955 16.8831 14.4218 16.2603 13.8051 14.5497L13.7128 14.2329C13.5305 13.5302 13.5757 12.6701 13.699 11.9687L14.0836 10.2545C14.1314 10.026 14.1325 9.79784 14.1487 9.56633L14.1946 8.16336C14.1942 7.93784 14.2139 7.68983 14.1774 7.4674L10.8674 7.277C9.90524 7.18915 8.89621 7.08715 7.95937 6.84514ZM1.94573 24.8564L1.85578 26.496C2.17804 26.6049 2.51189 26.6571 2.8446 26.7226L3.7552 26.9053C5.78306 27.2559 7.32918 27.4317 9.42262 27.1843L11.7229 26.8069C12.0447 26.743 12.3817 26.7087 12.6983 26.6243L12.9599 26.5842L12.9519 25.033C12.2452 25.1706 11.4991 25.2255 10.7823 25.2918L9.33609 25.4025C9.1702 25.4138 9.00665 25.4424 8.84006 25.4483L6.31701 25.4468C5.14584 25.3887 3.10607 25.1733 1.94573 24.8564ZM29.9213 24.871C28.4388 24.9995 27.0182 25.3688 25.4829 25.4491L23.3244 25.4565C22.6751 25.4463 22.0343 25.2987 21.397 25.1855L20.4551 25.051C20.0147 24.9875 19.5101 24.9244 19.0664 24.9829L19.0735 26.6757C19.112 26.7046 19.1413 26.726 19.1857 26.7454L22.0002 27.1811C22.8195 27.2591 23.4798 27.2701 24.3106 27.2692C25.9339 27.2675 28.5047 27.0057 30.086 26.4944L29.9845 24.8895C29.9391 24.8681 29.9607 24.8721 29.9213 24.871ZM11.8476 28.1523C9.78248 28.6525 5.538 28.8532 3.57782 28.2199C3.5676 28.9115 3.50723 29.4057 4.00832 29.9453C4.8202 30.7512 5.57756 30.6249 6.61214 30.6257L9.15675 30.625C9.52711 30.6236 11.5385 30.5279 11.8725 30.3963C11.9292 30.2913 11.9359 28.3428 11.9027 28.1315L11.8476 28.1523ZM28.3852 28.2226C27.654 28.4084 26.837 28.5323 26.0798 28.5756L24.2901 28.5944C22.8939 28.5951 21.5029 28.5449 20.1245 28.2966L20.1121 30.3788C20.1765 30.4574 20.2553 30.4678 20.3479 30.4844L20.6619 30.5232C20.8822 30.5622 21.1256 30.5473 21.3499 30.5616L25.8978 30.6251C26.1845 30.6246 26.4833 30.6475 26.7616 30.5702L26.896 30.5425C27.4477 30.4445 28.1018 29.9982 28.3289 29.4765L28.3422 29.4468C28.4887 29.1124 28.4779 28.5947 28.437 28.2344L28.3852 28.2226Z" fill="currentColor"/>
</svg>
