<svg width="30" height="44" viewBox="0 0 30 44" fill="currentColor" xmlns="http://www.w3.org/2000/svg">
<path d="M27.7098 40.9777L27.0122 41.3978C26.6571 41.568 26.2762 41.6799 25.9001 41.7933L21.7506 42.7728C20.7533 42.9338 19.7372 43.0231 18.7306 43.1028L15.8201 43.2489L11.9846 43.1621C9.52866 43.0167 7.09725 42.644 4.73419 41.9522L3.2932 41.515C2.06752 41.0775 1.19381 40.0374 0.96314 38.7693C0.897937 38.4107 0.941531 37.9904 0.943781 37.6248L0.955735 36.095L1.11145 33.7283L1.12378 29.0787L0.913922 25.5511L0.673641 23.5958C0.643781 23.2283 0.649031 22.8592 0.649687 22.4908C0.652781 20.7917 1.15523 20.2518 1.77286 18.8135C2.35383 17.4605 2.46103 16.4206 2.46197 14.9946L2.45302 13.2482L1.95698 6.43988C1.70077 4.06228 2.06902 3.17855 4.64189 2.49134C5.69377 2.21039 6.56723 1.72478 7.51917 1.21161C7.83773 1.03989 8.20322 0.783568 8.55919 0.724792C8.83758 0.744123 9.03548 0.828981 9.17095 1.09659L9.18727 1.12927C9.30338 1.34104 9.26109 1.55002 9.29058 1.77936L9.60909 4.185C9.6443 4.43419 9.67763 4.70536 9.76481 4.94278L9.96028 5.5238C10.9041 8.30845 13.7949 9.88641 16.6193 8.98603C18.5269 8.37797 19.8387 6.61941 20.3055 4.73147C20.4771 4.03763 20.5192 3.30572 20.601 2.59658L20.7041 1.70376C20.757 1.23021 20.8952 0.503551 21.6079 0.749771C21.7727 0.806738 21.931 0.925595 22.086 1.00748L23.8758 1.9772C24.8374 2.47694 25.9968 2.4454 26.9118 3.03595C28.2389 3.89255 28.1322 5.04928 28.0373 6.41756L27.6324 12.097C27.617 12.3429 27.5696 12.5851 27.5582 12.8318L27.5388 14.9288C27.5387 15.3675 27.5085 15.834 27.5612 16.269L27.7446 17.3341C27.7691 17.4581 27.8109 17.6166 27.8581 17.7358L28.0082 18.2035C28.1986 18.8655 28.563 19.4518 28.8397 20.0764C29.4271 21.4027 29.4433 22.579 29.2597 23.973L28.9458 26.7973L28.9203 27.7623C28.9117 27.9432 28.8828 28.1245 28.8784 28.305L28.882 33.4088L29.0771 37.8207C29.1123 39.106 28.7873 40.1501 27.7098 40.9777ZM21.876 2.30114L21.8697 2.32664C21.813 2.56881 21.8252 2.83481 21.8025 3.08264L21.6272 4.50427C20.64 10.8966 12.817 12.7555 9.39989 7.25841C8.49398 5.80106 8.24714 3.98231 8.12611 2.3028C7.85428 2.43974 7.5503 2.55934 7.29708 2.72649L7.49161 5.23294C7.51242 5.54306 7.55944 5.85066 7.56877 6.16111L7.58855 7.35192C7.59966 7.55447 7.64602 7.74661 7.66158 7.94728L7.7018 9.03942C7.71103 9.21267 7.74778 9.3825 7.75917 9.55505L7.78809 11.0433C7.79686 11.2584 7.83375 11.4733 7.84903 11.6879L7.97667 14.3871C7.98881 14.5813 8.03269 14.7759 8.03995 14.9691C8.05983 15.4966 7.99144 16.0794 8.0903 16.5969C8.20064 17.1747 8.19155 18.3535 8.22459 19.0452L8.25534 20.0969C8.30733 20.7621 8.28314 21.6163 8.37928 22.1999C8.45977 22.6882 8.42977 23.2091 8.43422 23.7031C8.43914 24.2505 8.49595 24.7909 8.50205 25.3402L8.60194 28.305C8.61014 28.4722 8.64178 28.6364 8.64609 28.8045L8.65434 33.3324L8.65631 40.6017C8.65641 40.9207 8.63456 41.261 8.68036 41.5761L11.6411 41.8747L13.6639 41.9674L16.2263 41.9679L18.3596 41.878C18.504 41.8701 18.6413 41.8383 18.7813 41.8265L21.3516 41.5867L21.3656 28.516C21.3751 28.2799 21.4314 28.0433 21.4414 27.8052L21.5813 23.0316C21.5901 22.8008 21.6455 22.575 21.6567 22.344L21.6849 21.0272L21.8448 18.5105L21.8763 17.1717L22.1159 12.5236C22.1567 11.625 22.191 10.6647 22.2501 9.77339L22.5225 4.53544C22.5299 4.39622 22.5608 4.26333 22.5712 4.1258L22.6189 3.30267C22.6374 3.12853 22.7002 2.92781 22.6871 2.75517L21.876 2.30114ZM6.13059 3.37927L5.10919 3.67453C4.34414 3.88547 3.36506 4.05431 3.14006 4.94958L3.12961 4.9898C3.05934 5.27077 3.13575 5.55797 3.15942 5.84077L3.48089 10.2308C3.49045 10.3591 3.52064 10.4833 3.52973 10.6122L3.57408 11.7779C3.58866 12.0111 3.64228 12.2373 3.6525 12.4738L3.67547 14.4722C3.68606 16.4806 3.63225 17.7784 2.74645 19.6886C2.01544 21.265 1.74956 21.559 1.92614 23.3867L2.32355 27.6254C2.34783 27.9488 2.33728 28.2843 2.34056 28.6091L2.32645 34.1655L2.24461 35.0926L2.15667 37.7602C2.15002 38.9314 2.34356 39.6523 3.53189 40.2479C3.95963 40.4216 4.39819 40.5469 4.83966 40.6793L7.39833 41.3287C7.4242 41.2585 7.41037 41.1568 7.41042 41.0819L7.38141 28.3194C7.36922 28.1334 7.33842 27.9507 7.33355 27.7638L7.31419 25.7981C7.30645 25.5506 7.26403 25.3082 7.25405 25.0609L7.15242 22.4412L7.032 19.0148L6.77648 14.89L6.58884 11.4605L6.47166 8.75953C6.46284 8.58914 6.42872 8.42264 6.41527 8.25736L6.16472 3.37242L6.13059 3.37927ZM23.8941 3.37927L23.5928 8.18803C23.5783 8.37553 23.5426 8.56434 23.534 8.751L23.5101 10.0937C23.5006 10.2668 23.4645 10.4351 23.452 10.6069L23.3017 13.4909C23.2602 14.1654 23.284 15.1202 23.1817 15.7007C23.07 16.3347 23.1718 17.0046 23.0822 17.6467C23.0194 18.0971 23.057 18.5696 23.0326 19.0238L22.7899 23.5783L22.7423 25.7387C22.7366 25.9414 22.7011 26.1424 22.6939 26.3457L22.6567 28.084C22.6464 28.3695 22.5823 28.6477 22.5765 28.936L22.5708 40.8284C22.5709 40.9961 22.5577 41.1738 22.59 41.3388C22.9613 41.2754 23.3294 41.1753 23.6951 41.0856L25.57 40.5579C25.8927 40.4552 26.2296 40.3612 26.5334 40.2096C27.506 39.6946 27.8437 38.9429 27.8385 37.8988L27.6664 34.3889C27.6446 34.0646 27.6582 33.7328 27.6569 33.4075L27.6536 29.3293C27.6557 28.3573 27.6604 27.5994 27.7386 26.6383L27.8822 24.9543C28.0517 23.647 28.3353 22.1788 27.835 20.9062C27.5843 20.2684 27.2046 19.6981 26.977 19.0465C26.7298 18.3387 26.5209 17.6287 26.3924 16.8893C26.2935 16.3208 26.2722 15.7419 26.2723 15.1671L26.2857 13.7168C26.2942 13.5445 26.3246 13.3739 26.3371 13.2013L26.3837 12.1793C26.4388 11.2634 26.5149 10.3581 26.5533 9.44663L26.6443 7.93088C26.6571 7.73334 26.6956 7.54031 26.7137 7.34353L26.8631 5.40314C26.8696 5.23852 26.86 5.07408 26.818 4.91442L26.8102 4.88377C26.5528 3.92658 25.4946 3.84122 24.6958 3.61627L24.1842 3.45853C24.0935 3.42731 23.9903 3.3758 23.8941 3.37927Z" fill="currentColor"/>
</svg>
