<svg width="36" height="34" viewBox="0 0 36 34" fill="currentColor" xmlns="http://www.w3.org/2000/svg">
<path d="M23.7834 32.766L22.3737 33.0046C21.8287 33.0921 21.2265 33.0784 20.6766 33.0799L16.1094 33.081C13.624 33.0793 11.0866 32.8612 8.98781 31.3686C8.42939 30.9714 8.61811 30.5424 8.70183 29.9727L9.49646 22.9042C9.52955 22.4893 9.50649 22.3969 9.49421 21.9922L9.40093 19.9594C9.37491 19.4413 9.44194 18.8763 9.34749 18.365C9.29822 18.0983 9.31046 17.8153 9.29883 17.5445L9.22022 16.424C9.16857 16.65 9.15038 16.8819 9.10622 17.1095L7.98324 21.9652L5.56983 32.5781C5.4646 32.9527 5.40764 33.3506 4.93969 33.4127L4.90627 33.4167C4.47764 33.4724 3.89499 33.4371 3.47133 33.3414L2.70661 33.1946C2.21152 33.0851 0.290441 32.69 0.203675 32.0856L0.200347 32.0586C0.158582 31.7679 0.2378 31.4907 0.271831 31.2054L1.15111 25.5313L3.77503 11.6211L4.92985 6.62198C5.03264 6.23808 5.15368 5.85895 5.23205 5.46877C5.26777 5.29097 5.26074 5.10684 5.29646 4.9297C5.38303 4.49991 5.76511 4.56197 6.00085 4.14839C6.33 3.57103 7.39172 3.26334 7.98005 3.05222L9.93591 2.34506C10.7936 2.02317 11.5978 1.68014 12.3076 1.08099C12.4533 0.957985 12.5607 0.77897 12.7187 0.673876L12.7447 0.657657C12.8408 0.596111 12.9319 0.589735 13.0425 0.578204C13.557 0.615798 13.4686 0.800907 13.8098 0.986204C15.8999 2.12095 19.1984 2.18025 21.3489 1.35961C21.6377 1.24945 21.9368 1.12041 22.1885 0.938673C22.5038 0.711095 22.9985 0.326626 23.4019 0.735845C23.5045 0.839954 23.5861 0.975376 23.7016 1.06463C24.5475 1.71792 25.266 1.99374 26.2447 2.36925L27.8505 2.97595C28.4356 3.18436 29.0332 3.36933 29.5658 3.69924C29.8564 3.87928 29.9221 4.11867 30.138 4.35492C30.3287 4.56366 30.5812 4.6162 30.6486 4.93444C30.8022 5.66011 30.993 6.60839 31.2344 7.30641C31.3736 7.70906 31.4246 8.1593 31.5347 8.57259C31.6193 8.8897 31.7119 9.22903 31.7694 9.55242L32.8197 14.576C32.8648 14.727 32.8748 14.8785 32.9066 15.0313L33.1342 16.1674C33.2233 16.6009 33.2716 17.0515 33.3754 17.4805C33.5735 18.2994 33.821 19.5651 33.9261 20.4221L34.2269 22.1024C34.3798 22.6335 34.3678 23.2233 34.5083 23.7573C34.599 24.102 34.6246 24.4815 34.6822 24.8345L35.3936 29.0116C35.411 29.136 35.4148 29.2752 35.446 29.3959L35.4555 29.4309C35.498 29.5918 35.5012 29.7608 35.5257 29.925L35.6204 30.5588C35.6739 30.9808 35.9795 31.8797 35.7466 32.2538C35.3384 32.9096 30.8963 34.0937 30.5233 32.9331C30.3854 32.5038 30.3086 32.0291 30.2077 31.5876L26.7642 16.6384C26.7486 16.8299 26.7045 17.014 26.6922 17.2049L26.6723 18.1464C26.6676 18.2908 26.6334 18.4296 26.6265 18.5733L26.6025 19.5471C26.5882 19.8162 26.5338 20.0753 26.5189 20.3463C26.4588 21.4345 26.472 22.5114 26.5869 23.5932L27.2265 29.5302C27.3624 30.5393 27.6978 30.9566 26.6932 31.5694C25.7855 32.1231 24.8158 32.5122 23.7834 32.766ZM22.8744 1.71652C21.3818 2.733 19.9508 2.94263 18.2206 2.94258L17.2259 2.93311C15.9546 2.85816 14.4663 2.57025 13.3728 1.9177C12.9767 1.68136 13.0719 1.81383 12.7267 2.07263C12.447 2.28234 12.1562 2.46638 11.8568 2.64647C12.2532 3.19969 12.6705 3.74053 13.1597 4.21599L13.7341 4.72706C17.1967 7.49349 20.5355 6.81305 23.3224 3.66408L24.1545 2.64492L22.8744 1.71652ZM25.1708 3.08977C23.4871 5.13703 21.7554 7.16616 18.8856 7.44806C15.7491 7.75617 13.2815 6.1867 11.3889 3.78586C11.2232 3.57563 11.0403 3.36572 10.9163 3.12642L6.98846 4.59708C7.16564 4.77099 7.36369 4.91756 7.53506 5.09625C8.93471 6.55566 9.34542 7.77164 9.88013 9.59573L9.97233 10.0103C10.1637 10.6917 10.2842 12.0062 10.1508 12.6522C10.0836 12.9774 10.0981 13.3288 10.0977 13.6593L10.1805 15.5023C10.2116 15.9394 10.2602 16.377 10.2891 16.8125L10.4168 19.5335C10.4224 19.6338 10.4497 19.7266 10.4577 19.8251L10.5308 22.8033C10.5219 23.3228 10.4566 23.8427 10.4073 24.3594L10.0024 27.944C9.95466 28.3415 9.85838 28.7464 9.83714 29.1455L9.66042 30.54C10.6684 31.2054 11.7411 31.6034 12.9371 31.8114L13.5908 31.9128C14.1297 31.9716 14.637 32.0137 15.1808 32.0151L21.6506 32.0094C21.9065 32.0003 22.3218 31.9322 22.5895 31.8994L23.1348 31.8058C24.157 31.6348 25.5218 31.1617 26.3196 30.5298L25.5047 23.1232C25.4878 22.8501 25.4399 22.5759 25.4391 22.3027L25.5259 19.5426C25.5344 19.4084 25.5631 19.2782 25.5725 19.1446L25.8861 14.9727L25.9024 13.8945C25.9117 13.1025 25.7977 12.3605 25.8046 11.6339C25.8254 9.44358 26.8763 6.6435 28.442 5.14739C28.6323 4.96552 28.8436 4.79578 29.0217 4.6028C28.6448 4.36664 28.2132 4.21425 27.7965 4.06228L26.5512 3.60797C26.0896 3.4388 25.6417 3.23222 25.1708 3.08977ZM6.27717 5.37994L1.2608 31.6427C2.13146 32.0608 3.21244 32.2607 4.16569 32.3492L4.60322 32.3625C4.68371 31.6672 4.87875 30.9781 5.03653 30.2965L6.86916 22.1563L8.96663 13.2029C9.47499 10.6184 8.47074 7.41975 6.56288 5.62458C6.47152 5.53861 6.36558 5.46769 6.27717 5.37994ZM29.7068 5.45911C29.4177 5.62003 29.1815 5.89031 28.9622 6.1342C27.5622 7.69092 26.8759 9.86058 26.8807 11.934C26.8814 12.213 26.8727 12.4757 26.9423 12.748L28.9113 21.2207C28.9867 21.4758 29.0156 21.7504 29.0738 22.0095L29.485 23.832C29.5817 24.2186 29.6324 24.6383 29.7527 25.0176L31.4109 32.2071C31.4229 32.2665 31.4504 32.323 31.4742 32.3785L31.9034 32.3369C33.1504 32.1742 33.5994 32.0841 34.7628 31.6544L29.7068 5.45911Z" fill="currentColor"/>
</svg>
