<svg width="240" height="240" viewBox="0 0 240 240" fill="none" xmlns="http://www.w3.org/2000/svg">
<path d="M194.906 59.6426C194.913 59.4293 194.917 59.2151 194.917 59C194.917 48.5066 186.496 40 176.108 40C167.868 40 160.866 45.353 158.323 52.8044C156.496 51.8416 154.419 51.2973 152.217 51.2973C144.917 51.2973 139 57.2749 139 64.6486C139 72.0224 144.917 78 152.217 78L176.134 78H190.342C195.676 78 200 73.6317 200 68.2432C200 64.5226 197.938 61.2883 194.906 59.6426Z" fill="#A3B6C2"/>
<path d="M181.381 174.958C183.864 172.398 181.465 168.334 177.907 168.609C175.749 168.776 173.568 168.861 171.366 168.861C125.154 168.861 87.6917 131.428 87.6917 85.252C87.6917 71.0498 91.2356 57.6746 97.488 45.9612C99.1698 42.8104 96.398 38.9833 93.0558 40.248C61.9024 52.036 39.75 82.1641 39.75 117.47C39.75 163.05 76.6703 200 122.214 200C145.424 200 166.395 190.403 181.381 174.958Z" fill="#A3B6C2"/>
</svg>
