<svg width="45" height="45" viewBox="0 0 45 45" fill="none" xmlns="http://www.w3.org/2000/svg">
<path d="M34.0089 32.8046C34.4746 32.3247 34.0246 31.5627 33.3576 31.6142C32.9529 31.6455 32.5439 31.6614 32.1312 31.6614C23.4664 31.6614 16.4422 24.6427 16.4422 15.9848C16.4422 13.3218 17.1067 10.814 18.279 8.61773C18.5943 8.02696 18.0746 7.30938 17.448 7.5465C11.6067 9.75674 7.45312 15.4058 7.45312 22.0257C7.45312 30.5719 14.3757 37.5 22.9151 37.5C27.2671 37.5 31.1991 35.7006 34.0089 32.8046Z" fill="white"/>
<path d="M36 16.284C35.9848 11.8851 32.4599 8.3125 28.1 8.3125C24.8284 8.3125 22.0266 10.3251 20.8259 13.1868C20.1687 12.9192 19.4509 12.772 18.7 12.772C15.5457 12.772 13 15.3617 13 18.5422C13 21.7227 15.5457 24.3125 18.7 24.3125L28.11 24.3125H33.7C36.0811 24.3125 38 22.358 38 19.9611C38 18.4154 37.2029 17.056 36 16.284Z" fill="white" stroke="#18233E"/>
<path d="M17.9986 30.2086C17.9341 27.4262 15.6667 25.1875 12.875 25.1875C10.8178 25.1875 9.0458 26.4033 8.22975 28.1552C7.84417 28.021 7.43023 27.9481 7 27.9481C4.92712 27.9481 3.25 29.6345 3.25 31.7107C3.25 33.7868 4.92712 35.4732 7 35.4732L12.8812 35.4732H16.375C17.9646 35.4732 19.25 34.1801 19.25 32.589C19.25 31.6005 18.754 30.728 17.9986 30.2086Z" fill="white" stroke="#18233E"/>
</svg>
